<?xml version="1.0" encoding="utf-8" standalone="yes"?>
<!DOCTYPE svg PUBLIC "-//W3C//DTD SVG 1.1//EN" "http://www.w3.org/Graphics/SVG/1.1/DTD/svg11.dtd">
<svg xmlns="http://www.w3.org/2000/svg" xmlns:xlink="http://www.w3.org/1999/xlink" xmlns:dc="http://purl.org/dc/elements/1.1/" xmlns:cc="http://web.resource.org/cc/" xmlns:rdf="http://www.w3.org/1999/02/22-rdf-syntax-ns#" xmlns:sodipodi="http://sodipodi.sourceforge.net/DTD/sodipodi-0.dtd" xmlns:inkscape="http://www.inkscape.org/namespaces/inkscape" version="1.1" baseProfile="full" width="600px" height="480px" viewBox="0 0 600 480" preserveAspectRatio="xMidYMid meet" id="svg_document" style="zoom: 4;"><!-- Created with macSVG - https://macsvg.org/ - https://github.com/dsward2/macsvg/ --><title id="svg_document_title">Untitled.svg</title><defs id="svg_document_defs"></defs><g id="main_group"></g><svg xmlns="http://www.w3.org/2000/svg" xmlns:xlink="http://www.w3.org/1999/xlink" id="illustration" viewBox="900 400"><path d="M328.450012,197.5 c.5,2.9 -1.3,5 -4,4.8 s-5.4,-2.8 -5.9,-5.8 s1.4,-5.1 4.1,-4.8 A7.12,7.12 0 0 1 328.450012,197.5 " fill-opacity="1" fill="#FFE779" class="cls-9"></path><path d="M331.450012,215.800003 l-9.8,-.4 a5.51,5.51 0 0 1 -4.8,-4.6 h0 c-.9,-5.4 2.6,-9.5 7.5,-9.1 h0 c4.8,.4 9.3,4.9 10.2,10.1 h0 C334.950012,214.100006 333.549988,215.899994 331.450012,215.800003 " fill-opacity="1" fill="#FFE779" class="cls-9"></path></svg><svg xmlns="http://www.w3.org/2000/svg" xmlns:xlink="http://www.w3.org/1999/xlink" id="illustration" viewBox="0 0 1024 768"><path d="M8256.932617,7165.164062 l-9.8,-.4 a5.51,5.51 0 0 1 -4.8,-4.6 h0 c-.9,-5.4 2.6,-9.5 7.5,-9.1 h0 c4.8,.4 9.3,4.9 10.2,10.1 h0 C8260.432617,7163.464355 8259.032227,7165.26416 8256.932617,7165.164062 " class="cls-9" fill="yellow"></path></svg></svg>