
<svg xmlns="http://www.w3.org/2000/svg" viewBox="0 0 1440 320">
<path fill="#FFE779" fill-opacity="1" d="M0,224L17.1,202.7C34.3,181,69,139,103,117.3C137.1,96,171,96,206,122.7C240,149,274,203,309,202.7C342.9,203,377,149,411,112C445.7,75,480,53,514,37.3C548.6,21,583,11,617,32C651.4,53,686,107,720,112C754.3,117,789,75,823,85.3C857.1,96,891,160,926,160C960,160,994,96,1029,101.3C1062.9,107,1097,181,1131,224C1165.7,267,1200,277,1234,234.7C1268.6,192,1303,96,1337,90.7C1371.4,85,1406,171,1423,213.3L1440,256L1440,0L1422.9,0C1405.7,0,1371,0,1337,0C1302.9,0,1269,0,1234,0C1200,0,1166,0,1131,0C1097.1,0,1063,0,1029,0C994.3,0,960,0,926,0C891.4,0,857,0,823,0C788.6,0,754,0,720,0C685.7,0,651,0,617,0C582.9,0,549,0,514,0C480,0,446,0,411,0C377.1,0,343,0,309,0C274.3,0,240,0,206,0C171.4,0,137,0,103,0C68.6,0,34,0,17,0L0,0Z"></path>
</svg>