<svg xmlns="http://www.w3.org/2000/svg" viewBox="0 0 1440 320"><path fill="#6DAFA7" fill-opacity="1" d="M0,224L17.1,202.7C34.3,181,69,139,103,117.3C137.1,96,171,96,206,122.7C240,149,274,203,309,202.7C342.9,203,377,149,411,112C445.7,75,480,53,514,37.3C548.6,21,583,11,617,32C651.4,53,686,107,720,112C754.3,117,789,75,823,85.3C857.1,96,891,160,926,160C960,160,994,96,1029,101.3C1062.9,107,1097,181,1131,224C1165.7,267,1200,277,1234,234.7C1268.6,192,1303,96,1337,90.7C1371.4,85,1406,171,1423,213.3L1440,256L1440,320L1422.9,320C1405.7,320,1371,320,1337,320C1302.9,320,1269,320,1234,320C1200,320,1166,320,1131,320C1097.1,320,1063,320,1029,320C994.3,320,960,320,926,320C891.4,320,857,320,823,320C788.6,320,754,320,720,320C685.7,320,651,320,617,320C582.9,320,549,320,514,320C480,320,446,320,411,320C377.1,320,343,320,309,320C274.3,320,240,320,206,320C171.4,320,137,320,103,320C68.6,320,34,320,17,320L0,320Z"></path></svg>