<svg xmlns="http://www.w3.org/2000/svg" viewBox="0 0 1440 320"><path fill="#F3C2C8" fill-opacity="1" d="M0,288L10.9,266.7C21.8,245,44,203,65,208C87.3,213,109,267,131,245.3C152.7,224,175,128,196,85.3C218.2,43,240,53,262,74.7C283.6,96,305,128,327,128C349.1,128,371,96,393,106.7C414.5,117,436,171,458,202.7C480,235,502,245,524,250.7C545.5,256,567,256,589,224C610.9,192,633,128,655,117.3C676.4,107,698,149,720,165.3C741.8,181,764,171,785,186.7C807.3,203,829,245,851,245.3C872.7,245,895,203,916,192C938.2,181,960,203,982,218.7C1003.6,235,1025,245,1047,229.3C1069.1,213,1091,171,1113,154.7C1134.5,139,1156,149,1178,149.3C1200,149,1222,139,1244,144C1265.5,149,1287,171,1309,170.7C1330.9,171,1353,149,1375,117.3C1396.4,85,1418,43,1429,21.3L1440,0L1440,320L1429.1,320C1418.2,320,1396,320,1375,320C1352.7,320,1331,320,1309,320C1287.3,320,1265,320,1244,320C1221.8,320,1200,320,1178,320C1156.4,320,1135,320,1113,320C1090.9,320,1069,320,1047,320C1025.5,320,1004,320,982,320C960,320,938,320,916,320C894.5,320,873,320,851,320C829.1,320,807,320,785,320C763.6,320,742,320,720,320C698.2,320,676,320,655,320C632.7,320,611,320,589,320C567.3,320,545,320,524,320C501.8,320,480,320,458,320C436.4,320,415,320,393,320C370.9,320,349,320,327,320C305.5,320,284,320,262,320C240,320,218,320,196,320C174.5,320,153,320,131,320C109.1,320,87,320,65,320C43.6,320,22,320,11,320L0,320Z"></path></svg>