<svg xmlns="http://www.w3.org/2000/svg" viewBox="0 0 1440 320"><path fill="#FFE779" fill-opacity="1" d="M0,128L6.2,122.7C12.3,117,25,107,37,138.7C49.2,171,62,245,74,245.3C86.2,245,98,171,111,165.3C123.1,160,135,224,148,213.3C160,203,172,117,185,117.3C196.9,117,209,203,222,245.3C233.8,288,246,288,258,288C270.8,288,283,288,295,288C307.7,288,320,288,332,261.3C344.6,235,357,181,369,165.3C381.5,149,394,171,406,186.7C418.5,203,431,213,443,197.3C455.4,181,468,139,480,138.7C492.3,139,505,181,517,192C529.2,203,542,181,554,154.7C566.2,128,578,96,591,96C603.1,96,615,128,628,160C640,192,652,224,665,197.3C676.9,171,689,85,702,74.7C713.8,64,726,128,738,160C750.8,192,763,192,775,202.7C787.7,213,800,235,812,224C824.6,213,837,171,849,154.7C861.5,139,874,149,886,176C898.5,203,911,245,923,229.3C935.4,213,948,139,960,96C972.3,53,985,43,997,69.3C1009.2,96,1022,160,1034,197.3C1046.2,235,1058,245,1071,229.3C1083.1,213,1095,171,1108,128C1120,85,1132,43,1145,69.3C1156.9,96,1169,192,1182,224C1193.8,256,1206,224,1218,208C1230.8,192,1243,192,1255,181.3C1267.7,171,1280,149,1292,144C1304.6,139,1317,149,1329,160C1341.5,171,1354,181,1366,197.3C1378.5,213,1391,235,1403,218.7C1415.4,203,1428,149,1434,122.7L1440,96L1440,320L1433.8,320C1427.7,320,1415,320,1403,320C1390.8,320,1378,320,1366,320C1353.8,320,1342,320,1329,320C1316.9,320,1305,320,1292,320C1280,320,1268,320,1255,320C1243.1,320,1231,320,1218,320C1206.2,320,1194,320,1182,320C1169.2,320,1157,320,1145,320C1132.3,320,1120,320,1108,320C1095.4,320,1083,320,1071,320C1058.5,320,1046,320,1034,320C1021.5,320,1009,320,997,320C984.6,320,972,320,960,320C947.7,320,935,320,923,320C910.8,320,898,320,886,320C873.8,320,862,320,849,320C836.9,320,825,320,812,320C800,320,788,320,775,320C763.1,320,751,320,738,320C726.2,320,714,320,702,320C689.2,320,677,320,665,320C652.3,320,640,320,628,320C615.4,320,603,320,591,320C578.5,320,566,320,554,320C541.5,320,529,320,517,320C504.6,320,492,320,480,320C467.7,320,455,320,443,320C430.8,320,418,320,406,320C393.8,320,382,320,369,320C356.9,320,345,320,332,320C320,320,308,320,295,320C283.1,320,271,320,258,320C246.2,320,234,320,222,320C209.2,320,197,320,185,320C172.3,320,160,320,148,320C135.4,320,123,320,111,320C98.5,320,86,320,74,320C61.5,320,49,320,37,320C24.6,320,12,320,6,320L0,320Z"></path></svg>