<svg xmlns="http://www.w3.org/2000/svg" viewBox="0 0 1440 320"><path fill="#FFE779" fill-opacity="1" d="M0,224L18.5,240C36.9,256,74,288,111,272C147.7,256,185,192,222,154.7C258.5,117,295,107,332,106.7C369.2,107,406,117,443,122.7C480,128,517,128,554,112C590.8,96,628,64,665,74.7C701.5,85,738,139,775,138.7C812.3,139,849,85,886,53.3C923.1,21,960,11,997,53.3C1033.8,96,1071,192,1108,202.7C1144.6,213,1182,139,1218,133.3C1255.4,128,1292,192,1329,218.7C1366.2,245,1403,235,1422,229.3L1440,224L1440,0L1421.5,0C1403.1,0,1366,0,1329,0C1292.3,0,1255,0,1218,0C1181.5,0,1145,0,1108,0C1070.8,0,1034,0,997,0C960,0,923,0,886,0C849.2,0,812,0,775,0C738.5,0,702,0,665,0C627.7,0,591,0,554,0C516.9,0,480,0,443,0C406.2,0,369,0,332,0C295.4,0,258,0,222,0C184.6,0,148,0,111,0C73.8,0,37,0,18,0L0,0Z"></path></svg>