<svg xmlns="http://www.w3.org/2000/svg" viewBox="0 0 1440 320">
  <path fill="#FFE779" fill-opacity="1" d="M0,256L18.5,213.3C36.9,171,74,85,111,74.7C147.7,64,185,128,222,181.3C258.5,235,295,277,332,277.3C369.2,277,406,235,443,229.3C480,224,517,256,554,234.7C590.8,213,628,139,665,138.7C701.5,139,738,213,775,213.3C812.3,213,849,139,886,133.3C923.1,128,960,192,997,202.7C1033.8,213,1071,171,1108,165.3C1144.6,160,1182,192,1218,181.3C1255.4,171,1292,117,1329,85.3C1366.2,53,1403,43,1422,37.3L1440,32L1440,320L1421.5,320C1403.1,320,1366,320,1329,320C1292.3,320,1255,320,1218,320C1181.5,320,1145,320,1108,320C1070.8,320,1034,320,997,320C960,320,923,320,886,320C849.2,320,812,320,775,320C738.5,320,702,320,665,320C627.7,320,591,320,554,320C516.9,320,480,320,443,320C406.2,320,369,320,332,320C295.4,320,258,320,222,320C184.6,320,148,320,111,320C73.8,320,37,320,18,320L0,320Z"></path>
</svg>